<svg xmlns="http://www.w3.org/2000/svg" viewBox="0 0 606 198.33"><defs><style>.cls-1{fill:#41007f;}</style></defs><g id="katman_2" data-name="katman 2"><g id="Layer_1" data-name="Layer 1"><path class="cls-1" d="M482.89,0C433.68.31,386.26,14.84,338,20.65c-20.16,2.43-40.94,3-61.13.77-26.85-3-52.85-11-79.68-14.53C173.18,3.7,148.9.37,124.77.23,82.6,0,41.82,12.47.48,19.2.48,30.62-2,45.28,4.21,53.31c6.37,8.28,17.12,15.85,19.91,27.08a406.19,406.19,0,0,0,28,77.7C58,170.24,69,178.72,81.29,184.55c29.61,14.06,64.67,16.13,97.16,11.71,46.27-6.3,71.37-39.09,90.52-76.56,7.17-15.23,8-32.81,17.41-46.73C292,64.7,305,68.18,314.32,68.15s17.19,14.59,20.08,24.32c10.22,34.44,27.26,71,61.13,89C446.1,208.44,525.78,203.4,558.6,154.8c12.84-19,16.39-42.1,22.83-63.63,3.93-13.11,7.43-28.74,21.38-35.95,5.63-2.91,1.68-14.51,2.51-21.26.91-7.35,2.65-13.85-8.42-15.3-19.31-2.51-38-10.18-57.81-12.77C520.36,3.44,502-.12,482.9,0ZM157.56,12.24A204.85,204.85,0,0,1,199,15.84c80.9,16.16,82.54,47.64,49.23,112.73-27.13,53-83.35,66.32-140,53.61-26.11-5.86-44-23.08-52.38-46.65C47,110.64,40.25,84.2,41.77,58.05c2-35,44-39.94,74-43.13a417.79,417.79,0,0,1,41.78-2.68Zm295.37,0a417.79,417.79,0,0,1,41.78,2.68c30,3.19,72,8.11,74,43.13,1.53,26.16-5.2,52.6-14.08,77.48-8.43,23.58-26.28,40.79-52.39,46.65-56.65,12.72-112.86-.57-140-53.61C328.94,63.48,330.57,32,411.47,15.84a205,205,0,0,1,41.45-3.6Z"/></g></g></svg>