<svg xmlns="http://www.w3.org/2000/svg" viewBox="0 0 607 210.97"><defs><style>.cls-1,.cls-2{stroke:#000;}.cls-2{opacity:0.7;isolation:isolate;}</style></defs><g id="katman_2" data-name="katman 2"><g id="Layer_1" data-name="Layer 1"><path class="cls-1" d="M483.39.5c-49.21.33-96.63,15.71-144.93,21.87-20.16,2.56-40.94,3.19-61.13.81C250.48,20,224.49,11.57,197.65,7.79c-24-3.37-48.25-6.9-72.38-7C83.1.5,42.32,13.7,1,20.83,1,32.92-1.48,48.44,4.71,56.94c6.37,8.77,17.12,16.78,19.92,28.66a445.89,445.89,0,0,0,28,82.27c5.84,12.86,16.85,21.83,29.15,28C111.41,210.76,146.46,213,179,208.27c46.27-6.66,71.37-41.38,90.52-81.05,7.17-16.13,8-34.73,17.41-49.47,5.61-8.75,18.63-5.07,27.94-5.1S332,88.09,334.9,98.4c10.22,36.46,27.26,75.14,61.13,94.24,50.58,28.53,130.26,23.2,163.07-28.26,12.84-20.13,16.39-44.56,22.83-67.36,3.93-13.88,7.43-30.43,21.38-38.06,5.63-3.08,1.68-15.36,2.51-22.51.91-7.78,2.65-14.66-8.42-16.19-19.31-2.67-38-10.78-57.81-13.52C520.86,4.14,502.5.38,483.39.5Zm-325.33,13a194.24,194.24,0,0,1,41.46,3.8c80.9,17.12,82.53,50.45,49.23,119.35-27.14,56.15-83.35,70.22-140,56.76-26.11-6.2-44-24.43-52.38-49.39-8.89-26.34-15.61-54.33-14.09-82,2-37.08,44-42.29,74-45.67a398.23,398.23,0,0,1,41.78-2.83Zm295.38,0a398,398,0,0,1,41.78,2.83c30,3.38,72,8.59,74,45.67,1.52,27.69-5.2,55.68-14.09,82-8.42,25-26.28,43.19-52.39,49.39-56.64,13.46-112.86-.61-140-56.76C329.45,67.71,331.09,34.38,412,17.26a194.09,194.09,0,0,1,41.45-3.8Z"/><path class="cls-2" d="M116.27,16.31c27.56-3.1,56.08-4.77,83.23,1C280.4,34.39,282,67.72,248.73,136.63c-27.14,56.15-83.33,70.22-140,56.76-26.11-6.2-44-24.49-52.4-49.45-8.89-26.35-15.64-54.32-14.12-82,2-37.08,44-42.24,74-45.62Z"/><path class="cls-2" d="M495.2,16.31c-27.56-3.1-56.08-4.77-83.23,1-80.9,17.11-82.53,50.44-49.23,119.35,27.14,56.15,83.33,70.22,140,56.76,26.11-6.2,44-24.49,52.4-49.45,8.88-26.35,15.64-54.32,14.12-82-2-37.08-44-42.24-74-45.62Z"/></g></g></svg>