<svg xmlns="http://www.w3.org/2000/svg" xmlns:xlink="http://www.w3.org/1999/xlink" viewBox="0 0 475.77 208.03"><defs><style>.cls-1{fill:#414141;}.cls-2{fill:none;stroke:#414141;stroke-linejoin:round;stroke-width:13px;}.cls-2,.cls-3,.cls-4{stroke-linecap:round;}.cls-3,.cls-4{stroke:#3063a3;stroke-miterlimit:10.32;fill-rule:evenodd;}.cls-3{fill:url(#radial-gradient);}.cls-4{fill:url(#radial-gradient-2);}</style><radialGradient id="radial-gradient" cx="342.33" cy="-745.68" r="90.53" gradientTransform="matrix(1.03, 0, 0, -1.03, 25.51, -628.21)" gradientUnits="userSpaceOnUse"><stop offset="0" stop-color="#729fcf" stop-opacity="0.21"/><stop offset="1" stop-color="#729fcf" stop-opacity="0.68"/></radialGradient><radialGradient id="radial-gradient-2" cx="107.15" cy="-745.68" r="90.53" gradientTransform="matrix(1.03, 0, 0, -1.03, 0.98, -628.21)" xlink:href="#radial-gradient"/></defs><g id="katman_2" data-name="katman 2"><g id="Layer_1" data-name="Layer 1"><path class="cls-1" d="M104,13a91,91,0,1,1-91,91,91.12,91.12,0,0,1,91-91m0-13A104,104,0,1,0,208,104,104,104,0,0,0,104,0Z"/><path class="cls-1" d="M371.75,13a91,91,0,1,1-91,91,91.12,91.12,0,0,1,91-91m0-13a104,104,0,1,0,104,104,104,104,0,0,0-104-104Z"/><path class="cls-2" d="M196,53.19A65.06,65.06,0,0,1,279.3,53"/><path class="cls-3" d="M465,103.91a93.45,93.45,0,1,1-93.45-93.45A93.45,93.45,0,0,1,465,103.91Z"/><path class="cls-4" d="M197.7,103.91a93.45,93.45,0,1,1-93.45-93.45A93.45,93.45,0,0,1,197.7,103.91Z"/></g></g></svg>