<svg xmlns="http://www.w3.org/2000/svg" viewBox="0 0 561.2 93.15"><defs><style>.cls-1{fill:#26b4d4;}.cls-1,.cls-3{fill-rule:evenodd;}.cls-2{fill:#fff;opacity:0.7;}.cls-3{fill:#1111a6;opacity:0.3;}</style></defs><g id="katman_2" data-name="katman 2"><g id="Layer_1" data-name="Layer 1"><path class="cls-1" d="M546.07,31.76V15.25H530.94V0H326.24V15.25H311.05V31.76h-60.9V15.25H235V0H30.26V15.25H15.13V31.76H0V62.4H15.13V78.06H30.26V93.15H235V78.06h15.19V62.4h60.9V78.06h15.19V93.15h204.7V78.06h15.13V62.4H561.2V31.76ZM233.56,76.55H32.81v-60H233.56Zm294.83,0H327.64v-60H528.39Z"/><rect class="cls-2" x="32.81" y="16.59" width="200.75" height="59.96"/><rect class="cls-2" x="327.64" y="16.59" width="200.75" height="59.96" transform="translate(856.03 93.14) rotate(-180)"/><path class="cls-3" d="M203.59,44.28V29.21H187.34V44.28H172.28V59.53H157V75.78h16.24V60.52H188V75.78h16.25V60.52h15.57V44.28Zm-15.06,1.18h15.06V59.53H188.53Z"/><path class="cls-3" d="M498.82,44.23V29.16H482.57V44.23H467.51V59.48H452.26V75.73H468.5V60.47h14.74V75.73h16.25V60.47h15.57V44.23Zm-15.06,1.18h15.06V59.48H483.76Z"/></g></g></svg>