<svg xmlns="http://www.w3.org/2000/svg" xmlns:xlink="http://www.w3.org/1999/xlink" viewBox="0 0 601.3 214.94"><defs><style>.cls-1,.cls-2{opacity:0.7;}.cls-1{fill:url(#linear-gradient);}.cls-2{fill:url(#linear-gradient-2);}.cls-3{fill:#1c6ab8;}.cls-4{fill:url(#linear-gradient-3);}</style><linearGradient id="linear-gradient" x1="152.81" y1="10.89" x2="152.81" y2="201.82" gradientUnits="userSpaceOnUse"><stop offset="0" stop-color="#00618f"/><stop offset="1" stop-color="#001e2e"/></linearGradient><linearGradient id="linear-gradient-2" x1="450.98" y1="10.89" x2="450.98" y2="201.63" xlink:href="#linear-gradient"/><linearGradient id="linear-gradient-3" x1="296.34" y1="-12.05" x2="315.3" y2="188.71" gradientUnits="userSpaceOnUse"><stop offset="0" stop-color="#00adff"/><stop offset="1" stop-color="#fff" stop-opacity="0"/></linearGradient></defs><g id="katman_2" data-name="katman 2"><g id="Layer_1" data-name="Layer 1"><path class="cls-1" d="M253.81,109.36c-14.67,49.4-49.14,89.65-105.8,90.2-25.37.25-49.14-6.05-66.49-19.8C59.75,162.5,52.62,139.17,49.72,111s-6.44-59.23,11-75.89c18.64-17.84,56.35-21.45,85.57-21.45,34.66,0,82,6.91,101.17,31.35C259.54,60.42,261.33,84.07,253.81,109.36Z"/><path class="cls-2" d="M350,109.36c14.67,49.4,49.14,89.65,105.8,90.2,25.37.25,49.15-6.05,66.49-19.8,21.77-17.26,28.9-40.59,31.8-68.75s6.44-59.23-11-75.89c-18.64-17.84-56.35-21.45-85.56-21.45-34.67,0-82,6.91-101.18,31.35C344.25,60.42,342.46,84.07,350,109.36Z"/><path class="cls-3" d="M590.06,6.41C557.36,3.15,459.9-5,376.82,4.32,347.33,7.62,334.45,12,301.2,12s-44.8-4.4-74.28-7.7C143.84-5,45.18,3.15,12.48,6.41,6,7.05,0,12.23,0,18.41V48.89c0,5,4.34,9.45,9.23,11.23C17,63,28.5,69.91,30.64,86.82c5.78,45.64,8.67,79.9,41.92,105.59,37,28.6,103.11,29.86,139.48,4.4,30.64-21.45,48.64-46.2,63.09-109.44,5.93-25.95,13.92-29.15,26.71-29.15s20.8,3.2,26.73,29.15c14.45,63.24,32.38,88,63,109.44,36.37,25.46,102.34,24.2,139.34-4.4,33.25-25.69,35.85-59.95,41.63-105.59,2.14-16.91,13-23.87,20.75-26.7a11.93,11.93,0,0,0,8-11.23V18.41A12.19,12.19,0,0,0,590.06,6.41Zm-336.25,103c-14.67,49.4-49.14,89.65-105.8,90.2-25.37.25-49.14-6.05-66.49-19.8C59.75,162.5,52.62,139.17,49.72,111s-6.44-59.23,11-75.89c18.64-17.84,56.35-21.45,85.57-21.45,34.66,0,82,6.91,101.17,31.35C259.54,60.42,261.33,84.07,253.81,109.36ZM554.07,111c-2.9,28.16-10,51.49-31.8,68.75-17.34,13.75-41.12,20.05-66.49,19.8-56.66-.55-91.13-40.8-105.8-90.2-7.52-25.29-5.73-48.94,6.36-64.34,19.18-24.44,66.51-31.35,101.18-31.35,29.21,0,66.92,3.61,85.56,21.45C560.51,51.78,557,83,554.07,111Z"/><path class="cls-4" d="M590.06,6.41C557.36,3.15,459.9-5,376.82,4.32,347.33,7.62,334.45,12,301.2,12s-44.8-4.4-74.28-7.7C143.84-5,45.18,3.15,12.48,6.41,6,7.05,0,12.23,0,18.41V48.89c0,5,4.34,9.45,9.23,11.23C17,63,28.5,69.91,30.64,86.82c5.78,45.64,8.67,79.9,41.92,105.59,37,28.6,103.11,29.86,139.48,4.4,30.64-21.45,48.64-46.2,63.09-109.44,5.93-25.95,13.92-29.15,26.71-29.15s20.8,3.2,26.73,29.15c14.45,63.24,32.38,88,63,109.44,36.37,25.46,102.34,24.2,139.34-4.4,33.25-25.69,35.85-59.95,41.63-105.59,2.14-16.91,13-23.87,20.75-26.7a11.93,11.93,0,0,0,8-11.23V18.41A12.19,12.19,0,0,0,590.06,6.41Zm-336.25,103c-14.67,49.4-49.14,89.65-105.8,90.2-25.37.25-49.14-6.05-66.49-19.8C59.75,162.5,52.62,139.17,49.72,111s-6.44-59.23,11-75.89c18.64-17.84,56.35-21.45,85.57-21.45,34.66,0,82,6.91,101.17,31.35C259.54,60.42,261.33,84.07,253.81,109.36ZM554.07,111c-2.9,28.16-10,51.49-31.8,68.75-17.34,13.75-41.12,20.05-66.49,19.8-56.66-.55-91.13-40.8-105.8-90.2-7.52-25.29-5.73-48.94,6.36-64.34,19.18-24.44,66.51-31.35,101.18-31.35,29.21,0,66.92,3.61,85.56,21.45C560.51,51.78,557,83,554.07,111Z"/></g></g></svg>