<svg xmlns="http://www.w3.org/2000/svg" viewBox="0 0 735.23 274.35"><defs><style>.cls-1{fill:#313fe8;}</style></defs><g id="katman_2" data-name="katman 2"><g id="Layer_1" data-name="Layer 1"><path class="cls-1" d="M339.12,67.64c19.95-14.06,42.34-15.2,67.65-.78,10.82,6,22.1,8.13,31.1-.39C478.4,28.12,520.43,6.12,576.29,9.71c38.56,2.48,72,12.57,100.69,31.49a232.36,232.36,0,0,0,38.77,20.31A28.54,28.54,0,0,1,732.44,80.4a91.13,91.13,0,0,1,2.79,22.46A14.38,14.38,0,0,1,725,117l-.15,0c-9.38,1.37-15.8,17.65-21,42.76-8.45,40.85-26.9,74.25-59.87,93.9-39,23.25-81.49,27.36-122.28,9.91-59.1-25.27-91.18-78.92-100.7-102.84-11.73-29.43-13.93-50-47.44-50.54-24.53-.37-35.9,3.27-41.6,25.27-13.93,53.79-38.16,94.26-89,117.61C181.65,281.2,131.41,272.39,81.15,236c-28-20.26-46.2-55.65-55.21-106.15-2.4-13.48-9.41-22.2-19.39-27.72A12.88,12.88,0,0,1,0,90.8C0,69.25,2.4,51.51,15.64,51.5,27,49.8,38.73,45.28,50.82,38.28c62.44-41.93,125.59-47.48,193.43-26,21,6.64,46.33,25.12,73.09,51.71,7,6.93,14.28,8.35,21.78,3.69Zm-164-46.95c-67.72,0-122.62,51.24-122.62,114.45S107.37,249.6,175.09,249.6s122.62-51.25,122.62-114.46S242.81,20.69,175.09,20.69Zm395.79,4.67c-67.72,0-122.61,51.24-122.61,114.45s54.89,114.45,122.61,114.45S693.5,203,693.5,139.81,638.6,25.36,570.88,25.36Z"/></g></g></svg>