<svg xmlns="http://www.w3.org/2000/svg" viewBox="0 0 652.5 219.33"><defs><style>.cls-1{fill:#770303;}</style></defs><g id="katman_2" data-name="katman 2"><g id="Layer_1" data-name="Layer 1"><path class="cls-1" d="M305.44,31.56a70.54,70.54,0,0,1-31.85-8.88C247.28,8.11,181,0,161.15,0,105.39,0,50.5,1.86,0,9.57L1.68,47.34c14.43,5.28,18.83,15.13,20.81,27C31.6,129.19,44.37,175.81,68.15,195,85,208.6,106.26,220.46,146,219.24c42.29-1.29,87.23-12.91,109.27-38.36,19.35-22.35,39.54-56.72,46.85-94.29,2.75-14.15,12.77-20.41,24.16-20.41s21.41,6.26,24.16,20.41c7.31,37.57,27.5,71.94,46.85,94.29,22,25.44,67,37.07,109.27,38.36,39.71,1.22,60.93-10.64,77.82-24.26C608.13,175.81,620.9,129.19,630,74.36c2-11.89,6.38-21.74,20.81-27L652.5,9.57C602,1.86,547.1,0,491.35,0c-19.8,0-86.13,8.11-112.44,22.68a70.6,70.6,0,0,1-31.85,8.88c-13.86.61-27.76.61-41.62,0ZM143.1,19c12.32,0,24.8.28,36.59.1,10.21-.15,80.55-2.07,91.92,40,10.84,40.15-5.24,91.18-39.45,120C208.32,199.3,114.51,221.12,77.72,178c-25.22-29.54-30.55-56.35-33.24-93.5C42.78,61,48.83,37,87.28,24.75c15.28-4.85,35.29-5.68,55.82-5.72Zm323.29,0c2.93,0,5.14.08,6.42.1,11.79.18,24.27-.12,36.58-.1,20.53,0,40.55.87,55.83,5.72C603.66,37,609.72,61,608,84.52c-2.69,37.16-8,64-33.24,93.5C538,221.12,444.17,199.3,420.34,179.2c-34.22-28.85-50.29-79.88-39.45-120,9.94-36.85,65-40,85.51-40.14ZM16.47,27.91h28.7v6.81H16.47Zm590.87,0H636v6.81h-28.7Z"/></g></g></svg>