<svg xmlns="http://www.w3.org/2000/svg" xmlns:xlink="http://www.w3.org/1999/xlink" viewBox="0 0 527.26 147.8"><defs><style>.cls-1,.cls-2{opacity:0.77;isolation:isolate;}.cls-1{fill:url(#linear-gradient);}.cls-2{fill:url(#linear-gradient-2);}.cls-3{fill:none;stroke:#555753;stroke-linecap:round;stroke-linejoin:round;stroke-width:4.72px;}</style><linearGradient id="linear-gradient" x1="-198.09" y1="-111.89" x2="-197.78" y2="-108.84" gradientTransform="matrix(125.6, 0, 0, -78.25, 24987.84, -8616.2)" gradientUnits="userSpaceOnUse"><stop offset="0" stop-color="#2e3436"/><stop offset="1" stop-color="#2e3436" stop-opacity="0"/></linearGradient><linearGradient id="linear-gradient-2" x1="-196.83" y1="-111.89" x2="-197.14" y2="-108.84" gradientTransform="matrix(125.6, 0, 0, -78.25, 25141.42, -8616.2)" xlink:href="#linear-gradient"/></defs><g id="katman_2" data-name="katman 2"><g id="Layer_1" data-name="Layer 1"><path class="cls-1" d="M210.7,4.85C223.11,7.42,228.4,20.94,232,31.73c6.25,20.9,6,43.16,3.89,64.67-2.4,15.11-1.48,33.89-18.33,42.16-16.07,7.88-131.13,14.75-191,2.79-12.41-2.58-17.69-16.09-21.32-26.89C-1,93.57-.74,71.3,1.33,49.8c2.4-15.11,1.39-32,18.33-42.16,17.36-10.43,130.9-9,191-2.79Z"/><path class="cls-2" d="M316.56,4.85c-12.41,2.57-17.7,16.09-21.32,26.88-6.25,20.9-6,43.16-3.89,64.67,2.4,15.11,1.48,33.89,18.33,42.16,16.07,7.88,131.13,14.75,191.05,2.79,12.41-2.58,17.69-16.09,21.31-26.89,6.25-20.89,6-43.16,3.89-64.66-2.4-15.11-1.39-32-18.33-42.16-17.36-10.43-130.9-9-191-2.79Z"/><path class="cls-3" d="M209.25,31.7C237.59,6.92,289.67,6.17,318,31.7"/></g></g></svg>