<svg xmlns="http://www.w3.org/2000/svg" viewBox="0 0 568.09 138.57"><defs><style>.cls-1,.cls-3{fill:#26b4d4;}.cls-1,.cls-2{fill-rule:evenodd;opacity:0.7;}.cls-2{fill:#fff;}</style></defs><g id="katman_2" data-name="katman 2"><g id="Layer_1" data-name="Layer 1"><g id="glass12"><polygon class="cls-1" points="236.93 31.41 236.93 46.72 221.95 46.72 221.95 62.02 206.66 62.02 206.66 77.33 190.17 77.33 190.17 92.64 174.64 92.64 174.64 107.94 159.59 107.94 159.59 123.25 144.47 123.25 144.47 138.56 112.83 138.56 112.83 123.25 96.47 123.25 96.47 107.94 81.02 107.94 81.02 92.64 64.66 92.64 64.66 77.33 49.23 77.33 49.23 62.02 32.93 62.02 32.93 46.72 17.53 46.72 17.53 31.41 236.93 31.41"/><polygon class="cls-1" points="549.95 31.41 549.95 46.72 534.55 46.72 534.55 62.02 518.25 62.02 518.25 77.33 502.83 77.33 502.83 92.64 486.47 92.64 486.47 107.94 471.02 107.94 471.02 123.25 454.66 123.25 454.66 138.56 423.02 138.56 423.02 123.25 407.89 123.25 407.89 107.94 392.85 107.94 392.85 92.64 377.32 92.64 377.32 77.33 360.83 77.33 360.83 62.02 345.53 62.02 345.53 46.72 330.55 46.72 330.55 31.41 549.95 31.41"/><path class="cls-2" d="M128.72,76.17V61.4H113V45H98.21V30.25H80.85V45H66.08V62.38H80.85V77.15H96.59V93.53h14.77V108.3h17.36V93.53h14.77V76.17Zm-17.36,0H98.21V62.38h13.15Z"/><path class="cls-2" d="M439.7,76.17V61.4H424V45H409.19V30.25H391.83V45H377.06V62.38h14.77V77.15h15.74V93.53h14.77V108.3H439.7V93.53h14.77V76.17Zm-17.36,0H409.19V62.38h13.15Z"/><rect class="cls-3" width="568.09" height="31.4"/></g></g></g></svg>