<svg xmlns="http://www.w3.org/2000/svg" xmlns:xlink="http://www.w3.org/1999/xlink" viewBox="0 0 636.52 229.09"><defs><style>.cls-1{fill:url(#radial-gradient);}.cls-2{fill-opacity:0.42;fill:url(#linear-gradient);}.cls-3{fill:url(#linear-gradient-2);}.cls-4,.cls-5{opacity:0.5;isolation:isolate;}.cls-4{fill:url(#linear-gradient-3);}.cls-5{fill:url(#linear-gradient-4);}.cls-6{fill:url(#linear-gradient-5);}</style><radialGradient id="radial-gradient" cx="317.12" cy="-667.85" r="63.51" gradientTransform="matrix(1, 0, 0, -1, 0, -552.36)" gradientUnits="userSpaceOnUse"><stop offset="0" stop-color="#fffbcc"/><stop offset="0.11" stop-color="#fbf2bb"/><stop offset="0.34" stop-color="#f0d98e"/><stop offset="0.37" stop-color="#eed688"/><stop offset="0.69" stop-color="#ebbb10"/><stop offset="1" stop-color="#c3922e"/></radialGradient><linearGradient id="linear-gradient" x1="231.11" y1="-671.65" x2="406.27" y2="-671.65" gradientTransform="matrix(1, 0, 0, -1, 0, -552.36)" gradientUnits="userSpaceOnUse"><stop offset="0" stop-color="#fdebf3"/><stop offset="0.11" stop-color="#f7eaf3"/><stop offset="0.23" stop-color="#faf1f2"/><stop offset="0.35" stop-color="#fffef0"/><stop offset="0.48" stop-color="#fbfbf0"/><stop offset="0.6" stop-color="#f0f3f2"/><stop offset="0.71" stop-color="#dde5f4"/><stop offset="0.71" stop-color="#dce4f4"/><stop offset="1" stop-color="#fee9df"/></linearGradient><linearGradient id="linear-gradient-2" x1="555.53" y1="-803.56" x2="60.99" y2="-518.04" gradientTransform="matrix(1, 0, 0, -1, 0, -552.36)" gradientUnits="userSpaceOnUse"><stop offset="0.01" stop-color="#ebc17d"/><stop offset="0.19" stop-color="#dfb77c"/><stop offset="0.6" stop-color="#c08329"/><stop offset="0.87" stop-color="#eabe81"/><stop offset="1" stop-color="#eedcc3"/></linearGradient><linearGradient id="linear-gradient-3" x1="244.23" y1="-714.1" x2="49.11" y2="-601.45" gradientTransform="matrix(1, 0, 0, -1, 0, -552.36)" gradientUnits="userSpaceOnUse"><stop offset="0" stop-color="#d6e5e5" stop-opacity="0.4"/><stop offset="0.21" stop-color="#ededee"/><stop offset="0.29" stop-color="#e9eee7" stop-opacity="0.77"/><stop offset="0.4" stop-color="#e2efdd" stop-opacity="0.4"/><stop offset="0.46" stop-color="#e7f2df" stop-opacity="0.51"/><stop offset="0.6" stop-color="#f4f8e2" stop-opacity="0.77"/><stop offset="0.7" stop-color="#fcfce4" stop-opacity="0.94"/><stop offset="0.75" stop-color="#fffde5"/><stop offset="0.99" stop-color="#cee3e6" stop-opacity="0.4"/></linearGradient><linearGradient id="linear-gradient-4" x1="593.64" y1="-722.24" x2="366.37" y2="-591.03" xlink:href="#linear-gradient-3"/><linearGradient id="linear-gradient-5" x1="318.26" y1="-603.22" x2="318.26" y2="-634.38" gradientTransform="matrix(1, 0, 0, -1, 0, -552.36)" gradientUnits="userSpaceOnUse"><stop offset="0" stop-color="#e4a324"/><stop offset="0.03" stop-color="#e7b141"/><stop offset="0.06" stop-color="#eabf5c"/><stop offset="0.1" stop-color="#edc972"/><stop offset="0.15" stop-color="#efd283"/><stop offset="0.2" stop-color="#f0d88e"/><stop offset="0.28" stop-color="#f1db95"/><stop offset="0.5" stop-color="#f1dc97"/><stop offset="0.7" stop-color="#f0da96"/><stop offset="0.77" stop-color="#ebd391"/><stop offset="0.82" stop-color="#e3c888"/><stop offset="0.86" stop-color="#d8b77c"/><stop offset="0.9" stop-color="#c9a16d"/><stop offset="0.93" stop-color="#b78559"/><stop offset="0.96" stop-color="#a26542"/><stop offset="0.98" stop-color="#894129"/><stop offset="1" stop-color="#772515"/></linearGradient></defs><g id="katman_2" data-name="katman 2"><g id="Layer_1" data-name="Layer 1"><g id="Layer_2" data-name="Layer 2"><g id="ReadingGlasses"><path class="cls-1" d="M378.36,117.17c-9.74-17.08-12.09-20.84-14.76-24.36a51.77,51.77,0,0,0-11.28-11.25,26.91,26.91,0,0,0-15.66-5.33l-39.61.11a27,27,0,0,0-15.62,5.43,42.38,42.38,0,0,0-11.21,11.32c-4.29,6-14.55,24.42-14.59,24.5l-19.29,37.17c7-1,7.83-1.08,8.71-1.11,20.55-42.9,20.58-43,20.63-43.07,2.52-4.07,5.09-7.3,7.39-10.61,9.88-14.16,18-18.53,25.88-19l35.77-.14h.08c7.85.43,17.22,7.43,26.34,18.85l7.32,11,20.72,42.52c4.87.71,6.81.85,8.72,1Z"/><path class="cls-2" d="M350.15,96c5.73,4.65,7.51,9.31,7.51,9.31l.58,2s21.2,41.21,34.52,55.77l.57.82.44.71c0,2.14,2.87,3.93,6.26,3.92s6.25-1.82,6.24-4a138.87,138.87,0,0,0-5.5-23.21c-4.32-13.45-11.78-30.6-24.32-45.4-13.87-25.65-26.19-26.41-57.59-26.3h-2.12c-31.4.1-42.57.94-56.27,26.68-12.44,14.88-19.78,32.08-24,45.56a139.3,139.3,0,0,0-5.35,23.24c0,2.14,2.88,3.94,6.26,3.93,3.11,0,4.66-1.75,6.67-4.67l34.72-56.82s7.47-26.7,39.08-26.8l1.06-.24,1.06.23c15.81,0,24.45,10.63,30.19,15.28Z"/><path class="cls-3" d="M635,64c-.92-2.37-24.14-2.91-32.45-3-8.84-32.32-27.29-46.43-71.8-56.2C520.11,2.38,506,1.36,489.14,1.39q-3.06,0-6.19.06C471-.67,400.76.64,318,.92,254.26,1.13,199-.22,171.65,0q-5.19,0-10.44.18-5.4.22-11.35.74c-8.21.71-16.92,1.81-25.84,3.18-5.68.87-11.1,1.81-16.1,2.74l-4.69.9-1.71.36C63,18.74,43.12,35.06,33.15,65.57c-8.85.2-30.81.93-31.69,3.23C-.92,75.06,0,86.37,1.52,88.91c1.13,1.85,17.32,1.7,26,1.49-.07.48-.15,1-.22,1.46l0,.55.13,39.64c.17,50.52,26.1,83.85,79.66,92.76,18,3,32.57,3.75,43,3.29.86,0,1.46-.08,1.78-.11,61.63-.19,99.86-44.3,123-119.17,1.6-5.16,4.36-17.9,5.88-26.8.29-1.72.54-3.3.72-4.64l32.36-.11,29-.1,11.24,0c.28,1.64.57,3.27.88,4.89,17,91.52,64.16,147.29,131,147.07a145.53,145.53,0,0,0,18.42-1.91q3-.45,6.14-1c3.78-.62,7.57-1.28,11.2-1.94,2.17-.39,3.81-.7,4.72-.88,48.63-7.66,74.41-31.85,81.46-80.55.11-.77.23-1.49.35-2.2.23-1.34.47-2.53.78-3.93h0c.07-.31.6-2.67.74-3.34,1.52-7.35,1.2-15.5-2-43.3-.17-1.48-.35-2.94-.53-4.37,8,.18,26.62.38,27.81-1.62C636.58,81.51,637.42,70.19,635,64ZM318,8.24c31.63-.11,61.43-.5,86.85-1.09-27.33,6.32-48.48,24.71-51.16,42.44l3.53,0L356,50.86l-2.55,2.56a24.25,24.25,0,0,1,.13-2.56c0-.43.1-.85.16-1.27l-73.89.25c.05.34.09.68.13,1,.11.85.19,1.7.25,2.56l-2.43-2.26-1.42-1.31h3.46c-2.25-15.38-12.09-26.61-27.71-34.4a106.84,106.84,0,0,0-23.63-8.32C254.26,7.89,285,8.35,318,8.24ZM602.31,131.8c-.13.62-.66,3-.71,3.24v0h0c-.34,1.51-.6,2.81-.85,4.29-.13.78-.26,1.57-.38,2.4-6.54,45.25-29.65,66.92-75.19,74.1-1,.19-2.63.5-4.77.88-3.58.65-7.33,1.31-11.06,1.92-2.08.34-4.1.65-6,.94A141.25,141.25,0,0,1,486,221.42c-62.69.21-107.33-52.88-123.64-141.65-.43-2.35-.84-4.71-1.24-7.11l-.42-2.56h0V69c0-2.54-4.92-4.64-12.88-4.56l-59.27.2c-7.95,0-14.59,2.14-14.58,4.65l.09,1.06h.11v3.19a45.26,45.26,0,0,1-.68,5.52c-1.34,8.21-4.35,22.35-5.93,27.46-22.32,72-58.35,113.6-116.06,113.79l-1.8.1c-9.9.44-24-.29-41.39-3.19C58.61,209,35.25,178.94,35.09,132l-.15-39.35c0,.08,0,.17,0,.26l0-.55v.29c6.47-45,23.34-64.7,68.39-77.11l1.4-.28c1.34-.27,2.88-.56,4.6-.88,4.91-.92,10.25-1.85,15.86-2.71,8.77-1.34,17.32-2.43,25.34-3.12,3.84-.34,7.52-.58,11-.72a225.87,225.87,0,0,1,36.58,1.57c3.17.39,6,.81,8.51,1.23,1.49.25,2.51.44,3,.55C249.4,18,270.86,28.68,272.56,54l.07,1.06.15,2.23v1c0,2.54,6.65,4.64,14.62,4.56l59.26-.22c8,0,14.59-2.14,14.58-4.65l-.09-1.06h0V53.4c0-.4,0-.8,0-1.2,1.22-18.72,32.05-41.35,67.66-39.58l.63,0c.91-.1,2.63-.29,5.05-.53,4-.4,8.55-.81,13.4-1.2C462,9.77,476,9.09,489.15,9.06c16.33,0,30,1,39.94,3.15C581.71,23.76,594.26,40.16,600.17,91,603.31,117.91,603.6,125.54,602.31,131.8Z"/><path class="cls-4" d="M273.51,79.09c-1.35,8.21-4.35,22.35-5.94,27.46-22.32,72-58.35,113.6-116.06,113.79l-1.79.1c-9.91.44-24-.29-41.39-3.18C58.6,209,35.23,178.94,35.08,132l-.14-39.35c6.47-45,23.34-64.7,68.39-77.11l1.4-.28c1.34-.27,2.88-.56,4.6-.88,4.91-.92,10.25-1.85,15.86-2.71,8.77-1.34,17.32-2.43,25.34-3.12,3.84-.34,7.52-.58,11-.72a225.87,225.87,0,0,1,36.58,1.57c3.17.39,6,.81,8.51,1.23,1.49.25,2.51.44,3,.55C249.4,18,270.86,28.68,272.56,54l.07,1.06a7.55,7.55,0,0,0-1.07,3.88V74A7.67,7.67,0,0,0,273.51,79.09Z"/><path class="cls-5" d="M602.31,131.8c-.13.62-.66,3-.71,3.24v0h0c-.34,1.51-.6,2.81-.85,4.29-.13.78-.26,1.57-.38,2.4-6.54,45.25-29.65,66.92-75.19,74.1-1,.19-2.63.5-4.77.88-3.58.65-7.33,1.31-11.06,1.92-2.08.34-4.1.65-6,.94A141.25,141.25,0,0,1,486,221.42c-62.69.21-107.33-52.88-123.64-141.65A7.79,7.79,0,0,0,365,74V58.87a7.88,7.88,0,0,0-3.83-6.67c1.23-18.72,32.05-41.35,67.66-39.58l.64,0c.91-.1,2.63-.29,5.05-.53,4-.4,8.54-.81,13.4-1.2C462,9.77,476,9.09,489.15,9.06c16.33,0,30,1,39.94,3.15C581.71,23.76,594.27,40.16,600.17,91,603.31,117.91,603.6,125.54,602.31,131.8Z"/><path class="cls-6" d="M365,58.87V74a7.74,7.74,0,0,1-2.62,5.76A8.7,8.7,0,0,1,356.45,82H280.07a8.69,8.69,0,0,1-6.56-2.93A7.69,7.69,0,0,1,271.56,74V58.87A7.72,7.72,0,0,1,272.64,55a8.53,8.53,0,0,1,5.15-3.83,8.88,8.88,0,0,1,2.18-.3h76.49a8.83,8.83,0,0,1,4.68,1.34A7.9,7.9,0,0,1,365,58.87Z"/></g></g></g></g></svg>