<svg xmlns="http://www.w3.org/2000/svg" viewBox="0 0 602.73 236.46"><defs><style>.cls-1{fill:#434242;fill-rule:evenodd;}</style></defs><g id="katman_2" data-name="katman 2"><g id="Layer_1" data-name="Layer 1"><path class="cls-1" d="M466.75.19q-51.81,0-116.49,24.15c-17.5-8.22-33.87-12.19-48.85-12.22s-31.4,4-48.93,12.19C209.45,8.06,170.59.07,136,0S56.13,9.15,0,27.68L0,70.52l14,6.34c-.34,45.9,3.79,77.48,12.13,94.64,21.2,43.22,55.23,64.79,101.76,64.79q89.57,0,120.82-55.52Q267.28,147.56,270.34,72l-8.83-15.18c10.17-8.5,23.52-12.68,39.84-12.67s29.72,4.21,39.89,12.7l-8.83,15.2q3,75.57,21.47,108.8c20.84,37,61,55.56,120.78,55.61,46.53,0,80.58-21.5,101.78-64.67C585,154.59,589,123.08,588.7,77.18l14-6.32,0-42.9C546.68,9.37,501.29.21,466.75.19Z"/></g></g></svg>