<svg xmlns="http://www.w3.org/2000/svg" viewBox="0 0 607.18 173.66"><defs><style>.cls-1{fill:#fff;}</style></defs><g id="katman_2" data-name="katman 2"><g id="Layer_1" data-name="Layer 1"><polygon points="607.18 57.36 607.18 90.81 555.61 90.81 555.61 157.83 538.38 157.83 538.38 173.66 368.84 173.66 368.84 157.83 353.23 157.83 353.23 57.36 253.96 57.36 253.96 157.83 238.34 157.83 238.34 173.66 68.81 173.66 68.81 157.83 51.58 157.83 51.58 90.81 0 90.81 0 17.79 51.58 17.79 51.58 0 236.18 0 236.18 17.77 253.96 17.77 253.96 17.79 353.23 17.79 353.23 17.77 370.9 17.77 370.9 0 555.61 0 555.61 17.79 606.64 17.79 606.64 57.36 607.18 57.36"/><path class="cls-1" d="M187.66,102.87v-16H170.13v16H152.94V136H136.85v17.53h18.64V137.42h14.64v16.09h17.53V137.42h17.28V102.87Zm-16.08,1.49H186.3V136H171.58Z"/><path class="cls-1" d="M519.06,102.87v-16H501.53v16H484.34V136H468.25v17.53h18.64V137.42h14.64v16.09h17.53V137.42h17.28V102.87ZM503,104.36H517.7V136H503Z"/></g></g></svg>