<svg xmlns="http://www.w3.org/2000/svg" viewBox="0 0 225 79.92"><defs><style>.cls-1{fill:#0a6a88;}.cls-2{fill:#23779d;}</style></defs><g id="katman_2" data-name="katman 2"><g id="katman_1-2" data-name="katman 1"><g id="değişikdiş"><rect width="225" height="79.92"/><rect class="cls-1" x="12.84" width="31.71" height="21.22"/><rect class="cls-1" x="12.79" y="48.21" width="31.71" height="31.71"/><rect class="cls-1" x="181.54" width="31.71" height="21.22"/><rect class="cls-1" x="181.54" y="48.21" width="31.71" height="31.71"/><rect class="cls-1" x="125.83" width="42.28" height="21.22"/><rect class="cls-1" x="125.83" y="48.21" width="42.28" height="31.71"/><rect class="cls-1" x="57.72" width="42.28" height="21.22"/><rect class="cls-1" x="57.72" y="48.21" width="42.28" height="31.71"/><rect class="cls-2" x="33.93" y="48.22" width="10.57" height="10.57"/><rect class="cls-2" x="12.79" y="48.22" width="10.57" height="10.57"/><rect class="cls-2" x="23.36" y="58.78" width="10.57" height="10.57"/><rect class="cls-2" x="33.93" y="69.35" width="10.57" height="10.57"/><rect class="cls-2" x="12.79" y="69.35" width="10.57" height="10.57"/><rect class="cls-2" x="78.86" y="48.22" width="10.57" height="10.57"/><rect class="cls-2" x="57.72" y="48.22" width="10.57" height="10.57"/><rect class="cls-2" x="68.29" y="58.78" width="10.57" height="10.57"/><rect class="cls-2" x="89.43" y="58.78" width="10.57" height="10.57"/><rect class="cls-2" x="78.86" y="69.35" width="10.57" height="10.57"/><rect class="cls-2" x="57.72" y="69.35" width="10.57" height="10.57"/><rect class="cls-2" x="146.97" y="48.22" width="10.57" height="10.57"/><rect class="cls-2" x="125.83" y="48.22" width="10.57" height="10.57"/><rect class="cls-2" x="136.4" y="58.78" width="10.57" height="10.57"/><rect class="cls-2" x="157.54" y="58.78" width="10.57" height="10.57"/><rect class="cls-2" x="146.97" y="69.35" width="10.57" height="10.57"/><rect class="cls-2" x="125.83" y="69.35" width="10.57" height="10.57"/><rect class="cls-2" x="202.55" y="48.22" width="10.57" height="10.57"/><rect class="cls-2" x="181.41" y="48.22" width="10.57" height="10.57"/><rect class="cls-2" x="191.98" y="58.78" width="10.57" height="10.57"/><rect class="cls-2" x="202.55" y="69.35" width="10.57" height="10.57"/><rect class="cls-2" x="181.41" y="69.35" width="10.57" height="10.57"/><rect class="cls-2" x="12.9" y="0.01" width="10.57" height="10.57"/><rect class="cls-2" x="57.72" y="0.03" width="21.14" height="10.7"/><rect class="cls-2" x="33.91" y="10.58" width="10.57" height="10.57"/><rect class="cls-2" x="181.54" y="0.03" width="10.7" height="10.7"/><rect class="cls-2" x="202.55" y="10.61" width="10.7" height="10.7"/><rect class="cls-2" x="78.86" y="10.61" width="21.14" height="10.7"/><rect class="cls-2" x="125.83" y="0.03" width="21.14" height="10.7"/><rect class="cls-2" x="146.97" y="10.61" width="21.14" height="10.7"/></g></g></g></svg>