<svg xmlns="http://www.w3.org/2000/svg" viewBox="0 0 225 76.75"><defs><style>.cls-1{fill:#c1bcbc;}.cls-2{fill:#7f8087;}.cls-3{fill:#7f9b2f;}.cls-4{fill:#097050;}.cls-5{fill:#c6798c;}.cls-6{fill:#683516;}.cls-7{fill:#096c4d;}.cls-8{fill:#4099b8;}.cls-9{fill:#ba206b;}.cls-10{fill:#beb221;}.cls-11{fill:#96b59e;}.cls-12{fill:#106f8f;}.cls-13{fill:#c23d0e;}.cls-14{fill:#642776;}</style></defs><g id="katman_2" data-name="katman 2"><g id="katman_1-2" data-name="katman 1"><g id="telli"><rect class="cls-1" width="225" height="76.75"/><rect y="33.62" width="225" height="10.33"/><rect class="cls-2" y="11.23" width="225" height="10.33"/><rect class="cls-2" y="56" width="225" height="10.33"/><rect x="22.51" width="10.32" height="76.75"/><rect x="56.46" width="10.32" height="76.75"/><rect x="90.4" width="10.32" height="76.75"/><rect x="124.34" width="10.32" height="76.75"/><rect x="158.29" width="10.32" height="76.75"/><rect x="192.23" width="10.32" height="76.75"/><rect class="cls-3" x="22.51" y="56.01" width="10.32" height="10.32"/><rect class="cls-4" x="56.46" y="56.01" width="10.32" height="10.32"/><rect class="cls-5" x="90.4" y="56.01" width="10.32" height="10.32"/><rect class="cls-6" x="124.34" y="56.01" width="10.32" height="10.32"/><rect class="cls-7" x="158.29" y="56.01" width="10.32" height="10.32"/><rect class="cls-8" x="192.23" y="56.01" width="10.32" height="10.32"/><rect class="cls-9" x="22.51" y="11.23" width="10.32" height="10.32"/><rect class="cls-10" x="56.46" y="11.23" width="10.32" height="10.32"/><rect class="cls-11" x="90.4" y="11.23" width="10.32" height="10.32"/><rect class="cls-12" x="124.34" y="11.23" width="10.32" height="10.32"/><rect class="cls-13" x="158.29" y="11.23" width="10.32" height="10.32"/><rect class="cls-14" x="192.23" y="11.23" width="10.32" height="10.32"/></g></g></g></svg>