<svg xmlns="http://www.w3.org/2000/svg" viewBox="0 0 123.19 123.19"><defs><style>.cls-1{fill:#c7c7c7;}.cls-2{fill:#8a8a8a;}</style></defs><g id="katman_2" data-name="katman 2"><g id="katman_1-2" data-name="katman 1"><g id="moon"><path class="cls-1" d="M123.19,61.6A61.59,61.59,0,0,1,61.6,123.19h-.78A61.62,61.62,0,0,1,34.83,6.1a61.63,61.63,0,0,1,88.36,55.5Z"/><path class="cls-2" d="M38,36.54S15,45.8,1.83,46.67A61.49,61.49,0,0,1,19.2,16.92C29.47,22.26,38,36.54,38,36.54Z"/><path class="cls-2" d="M49.76,12.53C48.66,14,39.84,11.3,34.83,6.1A61.27,61.27,0,0,1,51.28.86C51.78,5,50.66,11.34,49.76,12.53Z"/><path class="cls-2" d="M45.55,27.69c0,2.11-1.68,3.37,0,5.9s8,2.11,8.42,0-2.57-8.42-2.57-8.42Z"/><path class="cls-2" d="M58.19,22.22c.91,6.38,15.16,9,13.89,13.11s-10,12.58-6.88,13.42,13.2,1.69,18.68,0,8.84-18.53,3.37-20.21S57.34,16.32,58.19,22.22Z"/><path class="cls-2" d="M22.39,58.86C22.6,66,36.28,74.44,38,77s9.69.42,9.69-5.47-6.74-10.53,0-12.64,8.42-12.86,0-12.12S22.27,54.91,22.39,58.86Z"/><path class="cls-2" d="M61.6,98.87c-6.72-3,7.54-14.74,14.7-14.74s14.32,3.37,16,0,5.9,8,1.69,11-1.69,8-6.32,8.42S72.51,97.19,70.4,98,66.27,101,61.6,98.87Z"/><path class="cls-2" d="M60.82,123.19a61.25,61.25,0,0,1-23.42-4.93c4.87-7,14.89-11.81,18.68-11.81,4.63,0-.46,11.79,2.08,11.79C59.41,118.24,60.27,120.7,60.82,123.19Z"/><path class="cls-2" d="M102.41,62.36c7.16,0,7.58,15.66,0,15.66S92.7,62.36,102.41,62.36Z"/></g></g></g></svg>