<svg xmlns="http://www.w3.org/2000/svg" viewBox="0 0 123.19 123.2"><defs><style>.cls-1{fill:#6074c7;}.cls-2{fill:#aec0ff;}.cls-3{fill:#94a3d9;}</style></defs><g id="katman_2" data-name="katman 2"><g id="katman_1-2" data-name="katman 1"><g id="neptune"><path class="cls-1" d="M123.07,65.51a61.1,61.1,0,0,1-3.16,15.94,63.53,63.53,0,0,1-2.62,6.45l0,.07a61.93,61.93,0,0,1-10.18,15.15,61.48,61.48,0,0,1-75.19,12.42l-.7-.39a59.86,59.86,0,0,1-8.44-5.76c-1.1-.89-2.17-1.82-3.2-2.78-.4-.37-.79-.75-1.18-1.13s-1-1-1.53-1.57q-2.22-2.35-4.2-4.92c-.46-.6-.9-1.2-1.34-1.82a61.45,61.45,0,0,1-9-18.92,62.29,62.29,0,0,1-1.9-9.77A61.58,61.58,0,0,1,.63,52.7a60.85,60.85,0,0,1,1.2-6,59.51,59.51,0,0,1,2.76-8.41l.21-.49c.5-1.19,1-2.36,1.61-3.51A61.71,61.71,0,0,1,23.69,13c.33-.26.67-.52,1-.76a61.61,61.61,0,0,1,83.63,9.21c.1.12.2.23.29.35l.26.31a60.6,60.6,0,0,1,10.43,17.94,60.24,60.24,0,0,1,2.48,8.5h0a61.28,61.28,0,0,1,1,6.11c.11,1,.2,2,.27,3.07A62.46,62.46,0,0,1,123.07,65.51Z"/><path class="cls-2" d="M114.14,29.44c-15.94,3.11-36.2,6.6-58.31,10-20,3-38.67,5.53-54,7.27a59.51,59.51,0,0,1,2.76-8.41l.21-.49c14.33-2.66,31.3-5.52,49.52-8.28,20.29-3.08,39.12-5.59,54.56-7.34A61.48,61.48,0,0,1,114.14,29.44Z"/><path class="cls-2" d="M119.91,81.45a63.53,63.53,0,0,1-2.62,6.45l0,.07c-16.5,3.16-38.33,6.88-62.32,10.52-13.54,2.06-26.43,3.88-38.1,5.42q-2.22-2.35-4.2-4.92c-.46-.6-.9-1.2-1.34-1.82C24,95,38.41,92.6,53.69,90.28,79.44,86.37,102.83,83.29,119.91,81.45Z"/><ellipse class="cls-3" cx="36.97" cy="72.96" rx="10.21" ry="5.28"/><ellipse class="cls-3" cx="99.27" cy="45.04" rx="8.17" ry="5.62"/></g></g></g></svg>