<svg xmlns="http://www.w3.org/2000/svg" viewBox="0 0 212.6 123.19"><defs><style>.cls-1{fill:#d19842;}.cls-2{fill:#ad7338;}.cls-3{fill:#bf8741;}.cls-4{fill:#bf8d57;}</style></defs><g id="katman_2" data-name="katman 2"><g id="katman_1-2" data-name="katman 1"><g id="saturn"><path class="cls-1" d="M166.71,54.71c.12,1,.21,2,.27,3.07a60.43,60.43,0,0,1,0,7.73A61.61,61.61,0,0,1,66.67,109.4c-1.1-.89-2.17-1.82-3.2-2.79a61.5,61.5,0,0,1-15-68.35,61.55,61.55,0,0,1,94.23-25.73,62.42,62.42,0,0,1,9.51,9,61.37,61.37,0,0,1,14.46,33.23Z"/><path class="cls-2" d="M152.25,21.48c-9.89,10.66-25,25.63-33.25,27.06-12.85,2.24,2.44-9.38,3.37-13.45S88.92,51.31,70.54,53.77c-9.19,1.24-18.73.24-26-1.06a60.82,60.82,0,0,1,4-14.45C68.74,36,125.32,24.74,142.74,12.53A62.42,62.42,0,0,1,152.25,21.48Z"/><path class="cls-2" d="M127.29,4A157,157,0,0,1,67.61,13,61.66,61.66,0,0,1,127.29,4Z"/><path class="cls-2" d="M166.71,54.71c.12,1,.21,2,.27,3.07C141.35,69.75,86.65,94.15,56.56,99A61.27,61.27,0,0,1,46.21,78.26c31.49-4.28,95.1-20.2,117-38.18A61.29,61.29,0,0,1,166.71,54.71Z"/><path class="cls-2" d="M151,103.13a61.61,61.61,0,0,1-75.89,12C94.26,110.86,131.13,103.19,151,103.13Z"/><path class="cls-2" d="M167,65.51A61.1,61.1,0,0,1,161.2,87.9C140,94,83.38,105.92,66.67,109.4c-1.1-.89-2.17-1.82-3.2-2.79C81.73,102.34,145.14,76.82,167,65.51Z"/><path class="cls-3" d="M166.62,52.1c.17,1,.3,2,.41,3.06,0,.19.05.38.07.58,10.71-1,19.06-1.42,22.45-1,1,.14,1.59.36,1.65.66a.34.34,0,0,1,0,.21c-.67,1.46-10.34,4.68-23.8,8.36-16.88,4.62-39.72,10-58.18,13.51h-.08l-1.6.31c-5.6,1.06-11.57,2.09-17.64,3.06C75.55,83.19,60.73,85.14,49,86.31c-13,1.29-22.28,1.63-23.06.43a.31.31,0,0,1,0-.12.5.5,0,0,1,.18-.44c1.27-1.48,9.12-4.34,20.18-7.61-.08-.28-.16-.58-.23-.86q-.39-1.42-.69-2.88C17.4,81.85-.6,88.22,0,91.49s20.83,2.6,50.77-1.31C67.44,88,87.1,84.86,108.08,80.91c22-4.14,42.25-8.58,59-12.79,28-7,46.12-13.44,45.5-16.71S193.89,48.73,166.62,52.1Z"/><path class="cls-4" d="M191.2,55.44c-.24-.36-.24-.43-1.06-.65-3.37-.92-11.95-.73-23.11.37,0,.19.05.38.07.58.06.63.11,1.27.15,1.9,0,.1,0,.2,0,.3,6.66-.46,11-.42,11.1.37s-4.17,2.46-11,4.47C153,67,127.46,72.91,109.5,76.13,91.3,79.38,63.89,83.52,48.39,85c-7,.65-11.61.74-11.75-.06s3.83-2.37,10.16-4.37c-.21-.64-.41-1.29-.59-2-.08-.28-.16-.58-.23-.86C34.41,81.1,27.08,84.11,26,86.18a.91.91,0,0,0-.13.56.17.17,0,0,0,0,.07c.37,2.14,9.21,1.94,23.38.25,10.86-1.31,24.85-3.48,40.57-6.16,6.18-1.05,12.62-2.18,19.24-3.37h.08l.54-.1c22.52-4,42.84-8.21,57.57-12,15.18-3.85,24.41-7.23,24-9.48A1.68,1.68,0,0,0,191.2,55.44Z"/></g></g></g></svg>