<svg xmlns="http://www.w3.org/2000/svg" viewBox="0 0 212.6 123.19"><defs><style>.cls-1{fill:#80e3ef;}.cls-2{fill:#bcf5f9;}.cls-3{fill:#6bc0c6;}.cls-4{fill:#73cfd7;}.cls-5{fill:#6bc1c7;}.cls-6{fill:#e1f8f8;}</style></defs><g id="katman_2" data-name="katman 2"><g id="katman_1-2" data-name="katman 1"><g id="Uranus"><path class="cls-1" d="M167,65.5a61.57,61.57,0,0,1-16,37.62c-.31.34-.61.65-.91,1a61.57,61.57,0,0,1-83.41,5.31c-1.1-.89-2.17-1.82-3.2-2.78A61.65,61.65,0,0,1,56.56,99q-1.32-1.72-2.51-3.55l-.21-.3-.56-.88L53,93.79l-.28-.47c0-.07-.09-.14-.13-.22a60.11,60.11,0,0,1-4.7-9.76c-.16-.42-.32-.84-.46-1.27h0c-.44-1.25-.84-2.53-1.2-3.82-.18-.64-.35-1.28-.51-1.93-.42-1.69-.76-3.41-1-5.16a2.43,2.43,0,0,1,0-.3c0-.14,0-.27,0-.39,0-.42-.11-.8-.16-1.18,0-.12,0-.24,0-.36l-.06-.45A62.28,62.28,0,0,1,44,58c.1-1.79.29-3.57.54-5.32a61.54,61.54,0,0,1,4-14.45c.21-.51.43-1,.65-1.53.07-.17.15-.33.23-.5a61.64,61.64,0,0,1,10-15.43,60.09,60.09,0,0,1,6.82-6.62q.69-.59,1.41-1.14A61.69,61.69,0,0,1,127.29,4,57.56,57.56,0,0,1,134.08,7h0c1.13.57,2.23,1.2,3.31,1.86l.15.09h0c1.79,1.09,3.5,2.27,5.17,3.53,1,.74,1.94,1.52,2.87,2.32s2.08,1.84,3.07,2.82q1.86,1.83,3.57,3.81A61.86,61.86,0,0,1,157,27.82a60.6,60.6,0,0,1,3.14,5.36q1.11,2.15,2.06,4.38c.35.83.69,1.67,1,2.52s.59,1.64.86,2.48A54.82,54.82,0,0,1,165.57,48a56.76,56.76,0,0,1,1.14,6.72c.06.54.12,1.07.16,1.6s.08,1,.11,1.47A58.64,58.64,0,0,1,167,65.5Z"/><path class="cls-2" d="M166.87,56.3c-25.69,12-90.76,35.16-112,40.24-.15-.26-.4-.54-.8-1.1l-.21-.3c-.17-.24-.36-.53-.56-.88L53,93.79l-.28-.47c0-.07-.09-.14-.13-.22-.31-.54-.66-1.19-1.06-1.95C114,80.48,143.66,65.94,165.57,48a56.76,56.76,0,0,1,1.14,6.72C166.77,55.24,166.83,55.77,166.87,56.3Z"/><path class="cls-2" d="M151,103.12c-9.71,10.64-18.14,4.54-33.58,6.27-13.45,1.52-31.39,12-42.31,5.77C94.26,110.85,131.13,103.19,151,103.12Z"/><path class="cls-3" d="M167,65.51A61.1,61.1,0,0,1,161.2,87.9C140,94,83.38,105.92,66.67,109.39c-1.1-.89-2.17-1.81-3.2-2.78C81.73,102.34,163.76,92.09,167,65.51Z"/><path class="cls-2" d="M160.17,33.18C92.8,44.32,67.51,58.45,45.7,76.32l-1-5.16a2.43,2.43,0,0,1,0-.3c0-.14,0-.27,0-.39,0-.42-.11-.8-.16-1.18s-.09-.77-.12-1.22C69.67,56.21,135.08,33.19,157,27.82A60.6,60.6,0,0,1,160.17,33.18Z"/><path class="cls-2" d="M134.1,7.05h0c-8.55-1.68-27.57,6.48-39,7.76-11.58,1.3-21.35-3.87-28.91-.63a60.09,60.09,0,0,0-6.82,6.62c19.87-.07,59-7.48,78.18-11.79h0Z"/><path class="cls-4" d="M148.68,17.67C129.85,22,48.51,32.1,44,58c0,.22-.07.45-.1.67a61.5,61.5,0,0,1,5.24-22c.07-.17.15-.33.23-.5,21.08-6.06,79.2-17.82,96.23-21.37Z"/><path class="cls-5" d="M164.09,42.56S56.12,84.33,47.88,83.34c-.16-.42-.32-.84-.46-1.27.85-.35,110.79-44.53,114.81-44.51.35.83.69,1.67,1,2.52S163.82,41.72,164.09,42.56Z"/><path class="cls-6" d="M166.62,52.1c.17,1,.1.52.29,1.52,0,.19,0,.12.19.12,21.27-3.16,30.85-2.41,34.24-2a5.25,5.25,0,0,1,2.44,1,1.11,1.11,0,0,1-.24,1.53c-1.15,1.2-22.83,7.32-36.18,11.73-16.62,5.5-39.72,9-58.18,12.51h-.08l-1.6.31c-5.6,1.06-11.57,2.09-17.64,3-14.31,2.3-29,4.93-40.9,6.41-3.88.49-31.72,5.15-36.25.31,0,0,0-.08-.05-.12a.51.51,0,0,1,.18-.44c1.27-1.48,22.31-6.21,33.37-9.48-.08-.29-.16-.58-.23-.86q-.39-1.42-.69-2.88C17.4,81.85-.6,88.22,0,91.49s20.83,2.6,50.77-1.31C67.44,88,87.1,84.86,108.08,80.91c22-4.14,42.25-8.58,59-12.79,28-7.05,46.12-13.44,45.5-16.72S193.89,48.73,166.62,52.1Z"/></g></g></g></svg>